<svg width="85" height="71" viewBox="0 0 85 71" fill="none" xmlns="http://www.w3.org/2000/svg">
<path d="M81.3042 70.0207C82.6191 68.936 81.8521 67.56 81.3042 67.0077C80.5818 65.5012 77.1203 65.3505 76.5226 64.7479C76.0445 64.2658 74.7296 62.6388 74.132 61.8856C73.7833 61.1323 72.9068 59.3848 72.1896 58.4206C71.2931 57.2155 69.052 55.5583 68.6036 54.805C68.2448 54.2024 66.6611 51.7418 65.9141 50.5868C65.2666 49.3816 64.0912 46.6398 64.5694 45.3141C65.0475 43.9884 65.2666 41.7487 65.3164 40.7946C65.2168 39.5392 65.167 36.9078 65.7647 36.4258C65.9449 36.2804 66.1024 36.1406 66.2373 36.0119C66.6499 35.6187 66.8441 35.0699 67.1097 34.5655C67.3298 34.1473 67.5752 33.9312 67.7071 33.8647C69.5001 33.1115 70.546 33.4128 73.9826 34.9193C77.4191 36.4258 77.5685 35.8232 79.2121 35.3712C80.8557 34.9193 81.9016 32.8102 81.3039 31.605C80.7063 30.3998 81.3039 28.592 81.9016 27.5374C82.4993 26.4829 82.4993 23.6205 82.2004 23.3192C81.9614 23.0782 81.9016 22.2145 81.9016 21.8127C81.9016 21.2101 81.7821 19.8242 81.3039 19.101C80.8258 18.3779 81.5032 17.3937 81.9016 16.992L84.7407 14.4309C85.4879 13.2581 84.4419 12.824 83.8442 12.9244L79.6606 13.527H78.3158C78.017 13.527 72.3392 13.3764 69.3509 13.527C66.9602 13.6475 65.1672 14.1798 64.5696 14.4309C62.7766 16.3391 58.4435 20.1857 55.4552 20.3062C52.4669 20.4268 50.3252 21.3608 49.628 21.8127C48.5322 22.4656 46.0121 23.7109 44.6972 23.4699C43.0537 23.1686 33.0428 23.4699 30.5027 23.4699C28.4707 23.4699 25.6716 24.5747 24.5261 25.127C20.9401 24.6751 21.986 23.1686 20.9401 19.8543C19.8942 16.54 18.6988 15.0335 15.7105 12.3218C12.7222 9.61012 9.13622 8.55557 6.89499 7.35037C4.65375 6.14517 4.50433 5.39193 3.90666 4.18673C3.42854 3.22257 4.90277 2.2785 5.69965 1.92698C6.1479 1.42481 6.8651 0.360217 6.1479 0.119178C5.25141 -0.182122 4.35491 0.119178 2.41251 0.721776C0.4701 1.32438 -0.127571 2.98152 0.0218506 4.93997C0.171265 6.89841 1.36659 8.25426 2.56192 9.61011C3.75725 10.966 6.29732 11.8699 9.43505 14.1296C12.5728 16.3893 13.4693 19.101 14.6646 21.6621C15.6209 22.9878 15.7603 28.5417 15.7105 31.153C15.6109 31.8058 15.2922 33.3224 14.814 34.166C14.3658 34.9193 13.4693 37.0284 12.5728 38.8361C11.8556 40.2824 11.9751 42.4517 12.1245 43.3556C12.3736 44.0587 12.7521 45.6154 12.274 46.218C11.6763 46.9712 10.1821 50.1349 9.73389 51.1894C9.28564 52.244 8.98681 53.2985 8.98681 53.9011C8.98681 54.5037 8.83739 55.257 8.53856 56.6128C8.2995 57.6975 7.74168 58.8726 7.49265 59.3245C7.34323 59.6258 7.0444 60.3489 7.0444 60.831C7.0444 61.3131 7.24362 61.7349 7.34323 61.8855C7.49265 62.0864 7.9409 62.5183 8.53856 62.6388C9.28564 62.7894 10.6304 62.9401 12.274 62.7894C13.5888 62.6689 14.4156 61.8353 14.6646 61.4336C14.9634 60.8812 15.4117 59.6861 14.814 59.3245C14.2164 58.9629 14.3658 58.6717 14.5152 58.5713C14.9136 58.521 15.2996 58.0644 15.7105 57.818C16.1589 57.5492 16.3083 57.3445 16.607 57.2154C17.6529 56.7635 18.1012 56.6128 19.5953 55.7089C21.0895 54.805 21.6872 53.4492 22.1354 52.5453C22.5837 51.6414 23.9284 51.0388 26.6179 51.1894C29.285 51.3388 30.6297 52.5253 31.8176 53.5735L31.8475 53.5998C32.8037 54.4435 33.0428 56.1609 33.0428 56.9141C33.0428 57.3158 33.1922 58.2097 33.7899 58.5713C34.3875 58.9328 34.3377 59.4249 34.2381 59.6258C33.9891 60.0778 33.4611 61.1323 33.3416 61.7349C33.1922 62.4881 33.1922 62.9401 33.1922 64.2959C33.1922 65.3806 34.2879 66.4553 34.8358 66.857C36.2303 67.2587 39.378 67.791 40.8124 66.7063C42.6054 65.3505 41.2607 63.6933 41.1112 63.392C40.9917 63.151 40.1649 62.1868 39.7665 61.7349C41.5595 61.8554 43.2031 61.2829 43.8007 60.9816C44.249 60.6804 44.9363 59.7162 44.0996 58.27C43.0537 56.4622 42.3066 57.0648 42.1572 56.6128C42.0376 56.2512 42.207 55.5583 42.3066 55.257C42.6652 53.8107 44.5478 51.7418 45.4443 50.8881C46.7592 49.2009 48.9805 49.6829 49.9268 50.1349C51.5206 50.8379 54.8575 52.4549 55.4552 53.2985C56.2023 54.3531 60.0871 57.6674 61.133 58.4206C62.1789 59.1739 65.7649 62.4882 66.2131 63.0908C66.5717 63.5728 68.2552 65.1999 69.052 65.9531C69.4007 66.3046 70.3968 67.3994 71.5921 68.9661C72.7874 70.5329 75.0785 70.9246 76.0746 70.9246C77.2699 71.0752 79.9894 71.1053 81.3042 70.0207Z" fill="white"/>
</svg>
