<svg width="1920" height="1531" viewBox="0 0 1920 1531" fill="none" xmlns="http://www.w3.org/2000/svg">
<path d="M651.707 0.00614555C358.631 -0.59721 124.685 43.3724 -6 67.5066V336H2033V39.2243C1910.89 72.1072 1662.55 75.3 1553.65 72.786C1506.33 71.0262 1400.2 64.8564 1352.8 60.3418C1293.35 54.6791 1294.95 54.6791 1091.96 30.174C928.055 10.3866 730.618 0.131852 651.707 0.00614555Z" fill="#8E7EBD"/>
<path d="M651.707 54.353C358.631 53.4479 124.685 119.402 -6 155.604V558.344H2033V113.18C1910.89 162.505 1662.55 167.294 1553.65 163.523C1506.33 160.883 1400.2 151.628 1352.8 144.856C1293.35 136.362 1294.95 136.362 1091.96 99.6047C928.055 69.9236 730.618 54.5415 651.707 54.353Z" fill="#8E7EBD"/>
<path d="M4.02295 118.091C127.999 85.5132 346.066 28.2111 618.322 29.0082C692.627 29.1767 878.542 42.9107 1032.88 69.4117C1054.51 73.125 1073.67 76.4184 1090.73 79.35C1224.42 102.328 1228.85 103.089 1278.5 109.815C1323.13 115.861 1423.07 124.124 1467.62 126.481C1570.17 129.848 1804.01 125.572 1919 81.5326L1920 1463.03L1914.98 1464.35C1791 1496.93 1572.44 1530.82 1300.18 1530.02C1225.87 1529.86 1039.96 1516.12 885.615 1489.62C863.983 1485.91 844.819 1482.61 827.76 1479.68C694.079 1456.7 689.65 1455.94 640.004 1449.22C595.372 1443.17 495.429 1434.91 450.879 1432.55C348.331 1429.18 114.488 1433.46 -0.5 1477.5L-1 119.411L4.02295 118.091Z" fill="#1D2E35"/>
</svg>
