<svg width="84" height="84" viewBox="0 0 84 84" fill="none" xmlns="http://www.w3.org/2000/svg">
<g clip-path="url(#clip0)">
<path d="M51.5059 50.8084C59.0062 47.7622 63.8673 40.424 63.7467 32.3297C63.7467 21.2048 54.1353 12.1542 42.3214 12.1542C30.5075 12.1542 20.8961 21.2048 20.8961 32.3297C20.7755 40.424 25.6364 47.7622 33.1369 50.8084L33.3029 50.8983L34.4372 52.7595C32.4122 53.9316 31.7208 56.5234 32.8928 58.5483C33.0469 58.8145 33.2296 59.0632 33.4376 59.2899C31.8496 61.0308 31.9733 63.7291 33.7139 65.3172C34.5047 66.0386 35.5378 66.4364 36.608 66.4317H48.0348C50.3911 66.4421 52.3095 64.5402 52.3199 62.184C52.3245 61.1136 51.9267 60.0805 51.2054 59.2899C52.7871 57.5657 52.6714 54.8858 50.9472 53.3042C50.7205 53.0962 50.472 52.9136 50.2056 52.7595L51.3399 50.8983L51.5059 50.8084ZM48.0346 63.575H36.6078C35.819 63.575 35.1794 62.9355 35.1794 62.1467C35.1794 61.3578 35.819 60.7183 36.6078 60.7183H48.0346C48.8235 60.7183 49.463 61.3578 49.463 62.1467C49.463 62.9355 48.8235 63.575 48.0346 63.575ZM48.0346 57.8616H36.6078C35.819 57.8616 35.1794 57.222 35.1794 56.4332C35.1794 55.6444 35.819 55.0049 36.6078 55.0049H48.0346C48.8235 55.0049 49.463 55.6444 49.463 56.4332C49.463 57.222 48.8235 57.8616 48.0346 57.8616ZM50.2093 48.2614L49.6382 48.5717C49.4171 48.6922 49.2316 48.8688 49.1004 49.0836L47.2326 52.1482H46.6063V41.3126L52.3197 35.5992C52.8774 35.0415 52.8775 34.1372 52.3198 33.5795C51.762 33.0217 50.8577 33.0217 50.2999 33.5794L44.1681 39.7113C43.9003 39.9791 43.7498 40.3423 43.7496 40.7211V52.148H40.8929V40.7211C40.8927 40.3423 40.7422 39.9791 40.4744 39.7113L34.3424 33.5793C33.7847 33.0216 32.8804 33.0216 32.3227 33.5793C31.765 34.1371 31.765 35.0413 32.3227 35.599L38.0361 41.3125V52.148H37.4098L35.5421 49.0834C35.4108 48.8686 35.2253 48.6921 35.0043 48.5716L34.4331 48.2612C34.3872 48.2368 34.3403 48.2146 34.2922 48.195C27.8345 45.597 23.6444 39.2896 23.7526 32.3297C23.7526 22.7804 32.082 15.0109 42.3212 15.0109C52.5604 15.0109 60.8899 22.7804 60.8899 32.3297C60.9981 39.2896 56.8078 45.597 50.3502 48.195C50.3022 48.2148 50.255 48.237 50.2093 48.2614Z" fill="white"/>
<path d="M20.2561 15.9514L14.2416 12.9441C13.536 12.5914 12.6781 12.8773 12.3253 13.5829C11.9725 14.2884 12.2585 15.1464 12.964 15.4992L18.9786 18.5065C19.6842 18.8592 20.5421 18.5733 20.8949 17.8677C21.2477 17.1621 20.9617 16.3042 20.2561 15.9514Z" fill="white"/>
<path d="M70.5022 13.3062L64.1231 15.4339C63.3748 15.6835 62.9705 16.4924 63.2201 17.2407C63.4697 17.9891 64.2787 18.3933 65.027 18.1438L71.4061 16.0161C72.1544 15.7665 72.5587 14.9575 72.3091 14.2092C72.0595 13.4609 71.2505 13.0566 70.5022 13.3062Z" fill="white"/>
<path d="M13.7542 30.7228H8.04072C7.25186 30.7228 6.61237 31.3623 6.61237 32.1512C6.61237 32.9401 7.25186 33.5795 8.04072 33.5795H13.7542C14.543 33.5795 15.1825 32.9401 15.1825 32.1512C15.1825 31.3623 14.543 30.7228 13.7542 30.7228Z" fill="white"/>
<path d="M76.6018 30.7228H70.8884C70.0995 30.7228 69.46 31.3623 69.46 32.1512C69.46 32.9401 70.0995 33.5795 70.8884 33.5795H76.6018C77.3907 33.5795 78.0302 32.9401 78.0302 32.1512C78.0302 31.3623 77.3907 30.7228 76.6018 30.7228Z" fill="white"/>
<path d="M18.9787 48.6511L12.9642 51.6584C12.2586 52.0111 11.9726 52.8691 12.3254 53.5746C12.6782 54.2802 13.5361 54.5662 14.2417 54.2134L20.2563 51.2061C20.9618 50.8533 21.2478 49.9954 20.895 49.2898C20.5422 48.5843 19.6843 48.2983 18.9787 48.6511Z" fill="white"/>
<path d="M71.6766 51.6636L65.662 48.6563C64.9565 48.3035 64.0985 48.5895 63.7458 49.2951C63.393 50.0006 63.679 50.8586 64.3845 51.2113L70.3991 54.2186C71.1046 54.5714 71.9626 54.2854 72.3154 53.5799C72.6681 52.8743 72.3822 52.0163 71.6766 51.6636Z" fill="white"/>
<path d="M43.7496 7.86912V3.58406C43.7496 2.7952 43.1101 2.1557 42.3212 2.1557C41.5324 2.1557 40.8929 2.7952 40.8929 3.58406V7.86912C40.8929 8.65798 41.5324 9.29748 42.3212 9.29748C43.1101 9.29748 43.7496 8.65798 43.7496 7.86912Z" fill="white"/>
<path d="M82.3116 69.2967C83.1004 69.2875 83.7436 68.6489 83.7436 67.8601C83.7436 67.0712 83.1044 66.4308 82.3156 66.4405C64.1113 66.664 45.3031 71.1494 45.1787 79.2869H39.4638C39.3394 71.1494 20.5313 66.664 2.3269 66.4405C1.5381 66.4308 0.898926 67.0712 0.898926 67.8601C0.898926 68.6489 1.54212 69.2875 2.33092 69.2967C22.4879 69.5294 36.4397 74.6492 36.6002 79.2869H2.32728C1.53842 79.2869 0.898926 79.9264 0.898926 80.7153C0.898926 81.5041 1.53842 82.1436 2.32728 82.1436H82.3152C83.1041 82.1436 83.7436 81.5041 83.7436 80.7153C83.7436 79.9264 83.1041 79.2869 82.3152 79.2869H48.0424C48.2029 74.6492 62.1547 69.5294 82.3116 69.2967Z" fill="white"/>
<path d="M26.6911 74.9319L2.40022 73.6524C1.61247 73.6109 0.940234 74.2159 0.89874 75.0036C0.857246 75.7914 1.46221 76.4636 2.24996 76.5051L26.5408 77.7846C27.3286 77.8261 28.0008 77.2211 28.0423 76.4334C28.0838 75.6456 27.4788 74.9734 26.6911 74.9319Z" fill="white"/>
<path d="M82.2436 73.65L57.9528 74.9319C57.165 74.9735 56.5601 75.6458 56.6017 76.4336C56.6433 77.2213 57.3156 77.8262 58.1033 77.7846L82.3942 76.5027C83.1819 76.4611 83.7868 75.7888 83.7453 75.0011C83.7037 74.2133 83.0314 73.6084 82.2436 73.65Z" fill="white"/>
</g>
<defs>
<clipPath id="clip0">
<rect width="83" height="83" fill="white" transform="translate(0.82428 0.649658)"/>
</clipPath>
</defs>
</svg>
