<svg width="92" height="72" viewBox="0 0 92 72" fill="none" xmlns="http://www.w3.org/2000/svg">
<path d="M70.7251 58.3681C69.2339 56.72 67.1046 55.7748 64.883 55.7748C64.046 55.7748 62.7963 56.0875 62.5544 56.1498L62.4811 56.1691L62.4253 56.1892V45.3723C62.4253 40.0852 58.4269 35.7154 53.2955 35.1252C55.0912 33.2856 56.1996 30.7726 56.1996 28.0046C56.1996 22.3806 51.624 17.805 46 17.805C40.3759 17.805 35.8 22.3806 35.8 28.0046C35.8 30.7726 36.9087 33.2856 38.7044 35.1252C33.5731 35.7154 29.5746 40.0852 29.5746 45.3723V56.1892L29.5189 56.1691L29.4455 56.1498C29.2033 56.0875 27.954 55.7748 27.117 55.7748C24.8954 55.7748 22.766 56.72 21.2745 58.3681C19.7845 60.015 19.0574 62.235 19.28 64.459C19.4779 66.4359 20.4584 68.2504 22.0405 69.5686C23.5588 70.8331 25.4893 71.5295 27.4764 71.5295H64.5235C66.5106 71.5295 68.4412 70.8331 69.9594 69.5686C71.5416 68.2504 72.522 66.4359 72.72 64.459C72.9426 62.235 72.2154 60.015 70.7251 58.3681ZM46 20.953C49.8881 20.953 53.0516 24.1165 53.0516 28.0046C53.0516 31.8932 49.8881 35.0567 46 35.0567C42.1114 35.0567 38.9479 31.8932 38.9479 28.0046C38.9479 24.1165 42.1114 20.953 46 20.953ZM32.7226 45.3723C32.7226 41.4202 35.9381 38.2046 39.8902 38.2046H52.1093C56.0618 38.2046 59.2774 41.4202 59.2774 45.3723V57.3368L54.5326 59.0666V46.2318H51.3846V60.2138L46 62.1768L40.6153 60.2138V46.2318H37.4674V59.0666L32.7226 57.3368V45.3723ZM22.4123 64.1454C22.2762 62.785 22.7009 61.4832 23.6088 60.4802C24.5044 59.4904 25.7832 58.9227 27.117 58.9227C27.3969 58.9227 28.0794 59.0526 28.586 59.1797L44.426 64.9537V68.3816H27.4764C24.8745 68.3816 22.65 66.5207 22.4123 64.1454ZM69.5876 64.1454C69.3499 66.5207 67.1255 68.3816 64.5235 68.3816H47.5739V64.9537L63.414 59.1797C63.8665 59.0666 64.5866 58.9227 64.883 58.9227C66.2168 58.9227 67.4952 59.4904 68.3912 60.4802C69.2991 61.4836 69.7237 62.785 69.5876 64.1454Z" fill="white"/>
<path d="M75.9789 40.6637C80.6961 40.554 85.4109 40.972 90.0354 41.9096C90.2471 41.9589 90.4457 42.0537 90.6171 42.1874C90.7886 42.3211 90.9289 42.4906 91.0282 42.684C91.1282 42.8761 91.1857 43.0875 91.1966 43.3038C91.2075 43.5201 91.1717 43.7363 91.0915 43.9375C86.714 54.8974 79.558 60.2188 72.1969 62.5423L70.6997 59.9096C78.2798 57.6915 83.9358 52.5329 87.5811 44.5024C83.3684 43.787 72.4077 42.4629 62.7122 45.864L62.006 44.6224L61.5074 43.1431C65.0791 41.8435 68.8275 41.0608 72.6388 40.8264C75.4275 34.6493 76.2049 27.0501 74.9182 18.1883C70.1163 19.7536 65.566 22.0052 61.4086 24.8731C59.4053 26.2825 57.6038 27.7873 56.0057 29.3842L54.5778 26.5391C55.89 25.2842 57.2993 24.1242 58.7962 23.0712C55.9277 13.6098 48.8768 6.66743 46.2237 4.31866C40.1024 10.7804 36.1085 17.3552 34.287 23.8923C35.3004 24.6552 36.2696 25.469 37.1915 26.3296C37.076 26.6085 36.9545 26.9027 36.8285 27.2079C36.5608 27.8567 36.2724 28.5553 35.9765 29.2631C34.6534 27.9385 33.2098 26.7239 31.658 25.6369C27.2259 22.3957 22.3075 19.8785 17.0862 18.1793V18.1838C15.7936 27.0486 16.571 34.6493 19.3582 40.8188C22.9772 41.1093 26.8089 41.7857 30.4875 43.0956L29.5487 45.9578C19.7891 42.4376 8.66927 43.7796 4.42485 44.5024C8.02965 52.4563 13.6113 57.5928 21.0823 59.8433L19.4195 62.413C12.1939 60.0271 5.21005 54.7022 0.908472 43.9314C0.828298 43.7302 0.792449 43.5141 0.803369 43.2978C0.814288 43.0815 0.87172 42.8701 0.971749 42.678C1.07128 42.4853 1.21147 42.3165 1.38263 42.1833C1.5538 42.0501 1.75185 41.9557 1.96309 41.9066C6.58754 40.9689 11.3023 40.551 16.0196 40.6606C13.3137 33.7966 12.7488 25.5239 14.3834 15.9962C14.4187 15.7925 14.4956 15.5982 14.6093 15.4255C14.7229 15.2528 14.8709 15.1053 15.0441 14.9922C15.2172 14.8792 15.4117 14.8029 15.6156 14.7683C15.8194 14.7337 16.0282 14.7414 16.229 14.791C21.7431 16.3511 26.97 18.7888 31.7092 22.0106C33.8968 14.9989 38.3638 8.01583 45.0456 1.2196C45.304 0.957025 45.6496 0.798231 46.0172 0.773246C46.3847 0.748261 46.7487 0.858817 47.0403 1.08401C53.5377 6.41236 58.4901 13.3831 61.383 21.2723C65.8299 18.41 70.6787 16.2266 75.7694 14.794C75.9702 14.7444 76.179 14.7367 76.3828 14.7713C76.5867 14.806 76.7812 14.8822 76.9544 14.9952C77.1275 15.1083 77.2755 15.2558 77.3892 15.4285C77.5028 15.6012 77.5797 15.7955 77.615 15.9993C79.2497 25.5269 78.6907 33.8011 75.9789 40.6637Z" fill="white"/>
</svg>
