<svg width="75" height="74" viewBox="0 0 75 74" fill="none" xmlns="http://www.w3.org/2000/svg">
<g clip-path="url(#clip0)">
<path d="M65.2716 0.649658C61.0182 0.649658 57.5578 4.06313 57.5578 8.25921V9.48039H1.77027C0.972163 9.48039 0.324951 10.1189 0.324951 10.9062V72.224C0.324951 73.0113 0.972163 73.6498 1.77027 73.6498H63.6487C69.5347 73.6498 74.3231 68.926 74.3231 63.1197V9.57863C74.3232 4.65526 70.2626 0.649658 65.2716 0.649658ZM60.4485 8.25921C60.4485 5.63562 62.6123 3.50123 65.2716 3.50123C68.6687 3.50123 71.4326 6.22747 71.4326 9.57877V56.5863C69.8156 55.1013 67.6499 54.1904 65.2716 54.1904C63.4475 54.1904 61.7705 54.8196 60.4485 55.8677V8.25921ZM23.1777 12.4627C23.2199 12.4211 23.2578 12.3772 23.2936 12.332H57.558V33.2789L39.792 15.7531C39.2276 15.1966 38.3128 15.1965 37.7479 15.7531L28.6289 24.7488L19.676 15.9171L23.1777 12.4627ZM63.6487 70.7984H50.3642L53.4864 67.7184C54.0508 67.1616 54.0508 66.2588 53.4864 65.7019C52.9221 65.1454 52.0073 65.1453 51.4423 65.7019L46.276 70.7982H45.2461C45.2276 70.7778 45.2101 70.7569 45.1901 70.7372L37.5297 63.1803C36.9651 62.6236 36.0503 62.6236 35.4856 63.1803C34.9212 63.737 34.9212 64.6398 35.4856 65.1968L41.1639 70.7982H5.03321L23.0988 52.9769L27.6098 57.4269C28.1743 57.9836 29.0892 57.9836 29.6539 57.4269C30.2183 56.8702 30.2183 55.9674 29.6539 55.4105L24.1209 49.9523C23.5564 49.3956 22.6415 49.3956 22.0768 49.9523L3.21558 68.5586V53.817C3.28655 53.7687 3.35448 53.7145 3.41764 53.6522L11.6814 45.5003C12.2458 44.9435 12.2458 44.0407 11.6814 43.4838C11.117 42.9273 10.2021 42.9271 9.63726 43.4838L3.21529 49.8188V32.1206C3.28626 32.0722 3.35419 32.018 3.41735 31.9557L11.7729 23.7131L20.7257 32.545L17.8032 35.428C17.2388 35.9847 17.2388 36.8875 17.8032 37.4444C18.0854 37.7228 18.4553 37.8621 18.8251 37.8621C19.195 37.8621 19.5648 37.7228 19.8471 37.4444L23.7917 33.5533C24.0627 33.286 24.215 32.9233 24.215 32.5452C24.215 32.167 24.0627 31.8045 23.7917 31.537L12.795 20.6885C12.5238 20.4212 12.1563 20.2709 11.773 20.2709C11.3897 20.2709 11.0222 20.4212 10.751 20.6885L3.21529 28.1224V12.332H19.222L16.6099 14.9088C16.0455 15.4656 16.0455 16.3684 16.6099 16.9253L27.6067 27.7735C28.1713 28.33 29.0861 28.3303 29.6508 27.7735L38.7699 18.7778L57.5577 37.3117V61.7998C57.5577 65.3961 60.5235 68.3219 64.1692 68.3219C67.3137 68.3219 69.8721 65.7982 69.8721 62.6961C69.8721 61.9088 69.2249 61.2703 68.4268 61.2703C67.6287 61.2703 66.9815 61.9088 66.9815 62.6961C66.9815 64.2258 65.7198 65.4704 64.1692 65.4704C62.1174 65.4704 60.4483 63.8237 60.4483 61.7998C60.4483 59.1762 62.6121 57.0418 65.2715 57.0418C68.6686 57.0418 71.4324 59.7682 71.4324 63.1195C71.4326 67.3537 67.9408 70.7984 63.6487 70.7984Z" fill="white"/>
<path d="M33.6644 59.3672L33.4841 59.1891C32.9195 58.6324 32.0046 58.6324 31.44 59.1891C30.8756 59.7459 30.8756 60.6487 31.44 61.2056L31.6205 61.3837C31.9027 61.662 32.2726 61.8013 32.6425 61.8013C33.0123 61.8013 33.3822 61.662 33.6644 61.3837C34.2288 60.8268 34.2288 59.9241 33.6644 59.3672Z" fill="white"/>
<path d="M52.9101 54.5514L36.1843 38.0517C35.9132 37.7844 35.5457 37.6341 35.1624 37.6341C34.7791 37.6341 34.4114 37.7844 34.1404 38.0517L28.0907 44.0198C27.5263 44.5765 27.5263 45.4793 28.0907 46.0362L44.8165 62.5358C45.0876 62.8032 45.4552 62.9535 45.8385 62.9535C46.2218 62.9535 46.5893 62.8032 46.8605 62.5358L52.9101 56.5678C53.4744 56.011 53.4744 55.1084 52.9101 54.5514ZM45.8383 59.5113L31.1565 45.0279L35.1624 41.0762L49.8442 55.5595L45.8383 59.5113Z" fill="white"/>
<path d="M34.058 31.7828C33.4935 31.2262 32.5786 31.2262 32.0139 31.7828L31.5029 32.287C30.9385 32.8438 30.9385 33.7466 31.5029 34.3035C31.7853 34.5818 32.155 34.7211 32.525 34.7211C32.895 34.7211 33.2647 34.5818 33.547 34.3035L34.058 33.7993C34.6224 33.2425 34.6224 32.3397 34.058 31.7828Z" fill="white"/>
<path d="M38.6567 28.4232L38.1458 27.9192C37.5813 27.3626 36.6664 27.3626 36.1017 27.9192C35.5373 28.4759 35.5373 29.3787 36.1017 29.9357L36.6128 30.4397C36.895 30.718 37.2649 30.8573 37.6348 30.8573C38.0046 30.8573 38.3745 30.718 38.6567 30.4397C39.2211 29.8828 39.2211 28.9801 38.6567 28.4232Z" fill="white"/>
<path d="M24.8603 40.8562C24.2958 40.2996 23.3809 40.2996 22.8164 40.8562L22.3053 41.3604C21.7409 41.9171 21.7409 42.8199 22.3053 43.3769C22.5876 43.6552 22.9574 43.7945 23.3273 43.7945C23.6972 43.7945 24.067 43.6552 24.3493 43.3769L24.8603 42.8727C25.4247 42.3159 25.4247 41.4131 24.8603 40.8562Z" fill="white"/>
<path d="M43.2554 32.9601L42.7445 32.4561C42.18 31.8995 41.2651 31.8995 40.7004 32.4561C40.136 33.0129 40.136 33.9157 40.7004 34.4726L41.2115 34.9766C41.4937 35.2549 41.8636 35.3942 42.2334 35.3942C42.6033 35.3942 42.9731 35.2549 43.2554 34.9766C43.8198 34.4198 43.8198 33.517 43.2554 32.9601Z" fill="white"/>
<path d="M20.2613 43.984L19.7505 43.48C19.186 42.9233 18.2711 42.9233 17.7064 43.48C17.142 44.0367 17.142 44.9396 17.7064 45.4965L18.2174 46.0005C18.4996 46.2788 18.8695 46.4181 19.2393 46.4181C19.6092 46.4181 19.979 46.2788 20.2613 46.0005C20.8257 45.4436 20.8257 44.5409 20.2613 43.984Z" fill="white"/>
<path d="M29.4592 36.3195C28.8946 35.7629 27.9797 35.7629 27.415 36.3195L26.9041 36.8235C26.3397 37.3803 26.3397 38.2831 26.9041 38.84C27.1864 39.1183 27.5563 39.2576 27.9261 39.2576C28.296 39.2576 28.666 39.1183 28.9482 38.84L29.4592 38.336C30.0236 37.7792 30.0236 36.8764 29.4592 36.3195Z" fill="white"/>
<path d="M15.6626 39.447L15.1518 38.9432C14.6824 38.4804 13.9716 38.4037 13.4205 38.7103C14.12 37.8727 14.5406 36.8004 14.5406 35.6329C14.5406 32.96 12.3362 30.7854 9.6267 30.7854C6.91716 30.7854 4.71277 32.96 4.71277 35.6329C4.71277 38.3058 6.91716 40.4804 9.6267 40.4804C10.8598 40.4804 11.9873 40.029 12.8509 39.2864C12.563 39.8247 12.6486 40.5065 13.1077 40.9595L13.6187 41.4635C13.9009 41.7418 14.2708 41.8811 14.6406 41.8811C15.0105 41.8811 15.3804 41.7418 15.6626 41.4635C16.227 40.9066 16.227 40.0038 15.6626 39.447ZM9.6267 37.6289C8.51091 37.6289 7.60325 36.7335 7.60325 35.6328C7.60325 34.5321 8.51091 33.6367 9.6267 33.6367C10.7425 33.6367 11.6501 34.5321 11.6501 35.6328C11.6501 36.7335 10.7423 37.6289 9.6267 37.6289Z" fill="white"/>
<path d="M52.6128 38.7217C51.8147 38.7217 51.1675 39.3601 51.1675 40.1474V40.7649L49.3208 38.9432C48.7563 38.3866 47.8414 38.3866 47.2767 38.9432C46.7123 39.5 46.7123 40.4028 47.2767 40.9597L49.3223 42.9776H48.2987C47.5006 42.9776 46.8534 43.6161 46.8534 44.4034C46.8534 45.1907 47.5006 45.8292 48.2987 45.8292H52.6127C53.4108 45.8292 54.058 45.1907 54.058 44.4034V40.1476C54.058 39.3601 53.4109 38.7217 52.6128 38.7217Z" fill="white"/>
<path d="M66.2308 8.69159C65.4327 8.69159 64.7855 9.33006 64.7855 10.1174V20.5855C64.7855 21.3728 65.4327 22.0113 66.2308 22.0113C67.0289 22.0113 67.6761 21.3729 67.6761 20.5855V10.1174C67.6761 9.33006 67.0289 8.69159 66.2308 8.69159Z" fill="white"/>
<path d="M67.2525 25.0822C66.9838 24.817 66.6109 24.6644 66.2308 24.6644C65.8507 24.6644 65.4778 24.8171 65.2089 25.0822C64.94 25.3474 64.7855 25.7152 64.7855 26.0902C64.7855 26.4652 64.9401 26.833 65.2089 27.0982C65.4778 27.3634 65.8507 27.516 66.2308 27.516C66.6109 27.516 66.9838 27.3633 67.2525 27.0982C67.5215 26.833 67.6761 26.4652 67.6761 26.0902C67.6761 25.7152 67.5213 25.3488 67.2525 25.0822Z" fill="white"/>
</g>
<defs>
<clipPath id="clip0">
<rect width="74" height="73" fill="white" transform="translate(0.324219 0.649658)"/>
</clipPath>
</defs>
</svg>
