<svg width="85" height="96" viewBox="0 0 85 96" fill="none" xmlns="http://www.w3.org/2000/svg">
<path d="M84.311 39.539C84.0682 39.1222 83.6267 38.8605 83.1446 38.8474L51.6681 38.0196C52.1262 37.7448 52.5532 37.4121 52.9403 37.0249L55.7306 34.234C58.2845 31.6793 58.2845 27.5225 55.7306 24.9679C54.4931 23.7297 52.8468 23.0483 51.0961 23.0483C49.3454 23.0483 47.6998 23.7297 46.4623 24.9679L43.6721 27.7589C42.6811 28.7506 42.0758 29.9837 41.8547 31.2712L33.6985 22.7677C33.1671 22.2131 32.2863 22.195 31.731 22.7271C31.1764 23.2585 31.1576 24.14 31.6897 24.6946L33.4578 26.5381L31.0293 28.2873L19.1512 13.6343C19.679 13.5915 20.1662 13.4009 20.5736 13.1036L27.8367 20.677C28.11 20.9619 28.4753 21.1054 28.8414 21.1054C29.1879 21.1054 29.5344 20.9764 29.8048 20.7183C30.3594 20.1862 30.3775 19.3047 29.8454 18.7501L21.7175 10.275L21.437 2.45729C21.4304 1.67001 20.9288 0.980603 20.177 0.733401C19.4086 0.481125 18.58 0.753699 18.1131 1.40904L1.61659 24.488C-0.366095 27.2608 -0.281278 31.0617 1.81813 33.7439L12.4319 48.7152C12.8132 49.2545 13.3634 49.7569 14.0977 50.2361C14.0593 50.6044 14.0398 50.9748 14.0434 51.3481L14.4856 92.2082C14.5059 94.1112 16.0703 95.6589 17.9732 95.6589H25.585C26.7609 95.6589 27.746 94.8926 28.0353 93.7523C28.3245 92.612 27.8243 91.4688 26.7899 90.9077C26.7522 90.8874 26.7137 90.8685 26.6739 90.8519L22.3069 88.9837C22.059 88.8772 21.9096 88.6162 21.9444 88.3487L23.445 76.5279C23.5414 75.7653 23.0021 75.0686 22.2395 74.9715C21.479 74.8751 20.7802 75.4144 20.683 76.1771L20.4605 77.9314H17.1149L16.8278 51.3184C16.822 50.8218 16.8684 50.334 16.9627 49.8599C16.9714 49.8258 16.9794 49.791 16.9859 49.7562C17.2751 48.4071 17.9595 47.1769 18.9874 46.1961C19.5434 45.6654 19.5637 44.7846 19.0331 44.2286C18.5032 43.6726 17.6216 43.6515 17.0656 44.1822C16.129 45.076 15.3903 46.1446 14.8763 47.3117C14.798 47.2298 14.7422 47.1609 14.7038 47.1066L4.06904 32.1056C4.05526 32.086 4.04077 32.0664 4.02554 32.0476C2.66775 30.3309 2.6083 27.8872 3.88201 26.1067L11.0733 16.0454L12.6617 17.3024L8.30627 25.4717C8.29322 25.4956 8.28089 25.5203 8.26929 25.5449C7.56321 27.0818 7.96555 28.9253 9.24723 30.0279L24.8398 43.4442L21.3732 70.7502C21.276 71.5129 21.8161 72.2095 22.5787 72.3067C22.6374 72.3139 22.6969 72.3175 22.7556 72.3175C23.4457 72.3175 24.0453 71.8043 24.1344 71.1011L26.3418 53.7129H33.8398C38.1075 53.7129 41.9134 53.3569 45.2589 48.9936L46.2775 47.8431L77.7953 45.9177C77.8062 45.917 77.8164 45.9162 77.8265 45.9155C79.8599 45.7459 81.7759 44.7484 83.0837 43.1789C83.1439 43.1057 83.1968 43.0267 83.2418 42.9433L84.3357 40.8946C84.5633 40.4691 84.5539 39.9558 84.311 39.539ZM20.1074 80.7151L19.1824 87.9978C18.9925 89.4926 19.8276 90.9505 21.2122 91.5427L24.3265 92.8751H17.9732C17.589 92.8751 17.2737 92.5627 17.2693 92.1785L17.1454 80.7151H20.1074ZM45.641 29.7271L48.4305 26.9361C49.1431 26.2242 50.0892 25.832 51.0961 25.832C52.1038 25.832 53.0498 26.2242 53.7617 26.9361C55.2311 28.4055 55.2311 30.7963 53.7617 32.2658L50.9721 35.0568C50.2595 35.7686 49.3135 36.1608 48.3066 36.1608C47.2996 36.1608 46.3529 35.7686 45.641 35.0568C44.1716 33.5873 44.1716 31.1965 45.641 29.7271ZM12.6936 13.7786L18.7533 5.30047L18.9526 10.844C18.9483 10.8542 18.9388 10.8622 18.9272 10.8622H17.9798C17.8398 10.8622 17.7021 10.8737 17.568 10.8926C17.5455 10.894 17.5245 10.8977 17.502 10.9006C17.4904 10.9027 17.4788 10.9035 17.4672 10.9049C17.4614 10.9056 17.4564 10.9071 17.4513 10.9085C17.4252 10.9129 17.4005 10.918 17.3759 10.9238C16.7503 11.0448 16.1718 11.358 15.7288 11.8162C15.7187 11.8256 15.7085 11.8357 15.6991 11.8452C15.6919 11.8531 15.6839 11.8604 15.6766 11.8676C15.6614 11.8843 15.6477 11.9017 15.6332 11.9184C15.6274 11.9249 15.6216 11.9314 15.6158 11.9379C15.4251 12.1547 15.2634 12.3947 15.1395 12.6556L13.9919 14.8072L12.6936 13.7786ZM10.7855 26.7374L16.8982 15.2741L33.2381 35.4323C32.9974 38.7793 30.2224 41.4333 26.8283 41.4833L11.0632 27.9184C10.7246 27.6277 10.6137 27.1463 10.7855 26.7374ZM45.5315 45.1C45.1633 45.1224 44.8182 45.2906 44.5739 45.5668L43.1407 47.1863C43.1182 47.2124 43.0965 47.2385 43.0762 47.2653C41.1457 49.799 39.3544 50.9291 33.8391 50.9291H26.6949L27.5452 44.2322C32.2972 43.8176 36.0385 39.8188 36.0385 34.9603C36.0385 34.6414 35.9283 34.3318 35.7275 34.0839L32.785 30.4534L35.4035 28.5672L43.9019 37.4273C45.8142 39.5658 48.5523 40.7931 51.4201 40.7982L54.6338 40.883L54.707 44.5396L45.5315 45.1ZM77.609 43.1405L57.4878 44.3692L57.419 40.9555L80.7929 41.5703C79.9694 42.467 78.8226 43.0354 77.609 43.1405Z" fill="white"/>
</svg>
