<svg width="47" height="78" viewBox="0 0 47 78" fill="none" xmlns="http://www.w3.org/2000/svg">
<path d="M38.8062 30.7705C43.3265 30.7705 46.9909 34.4702 46.9909 39.034C46.9909 41.7204 45.5838 44.013 43.6173 45.5223C41.9007 46.5101 40.9382 49.9486 40.9382 54.2895C40.9382 58.2224 41.9488 61.5623 43.3533 62.7603V62.7674C43.3689 62.778 43.3846 62.7887 43.4002 62.7993C43.4817 62.8657 43.5646 62.9249 43.6486 62.9767C45.6755 64.4808 46.9909 66.905 46.9909 69.6393C46.9909 74.2031 43.3265 77.9028 38.8062 77.9028C34.2859 77.9028 30.6214 74.2031 30.6214 69.6393C30.6214 66.8786 31.9624 64.4341 34.0226 62.9334C34.0621 62.9069 34.1014 62.8788 34.1404 62.8491C34.1797 62.8215 34.2193 62.7943 34.2591 62.7674V62.7529C35.6591 61.5486 36.6656 58.2137 36.6656 54.2883C36.6656 49.9221 35.2906 46.2203 33.6479 45.3434C31.7305 43.831 30.6214 41.6809 30.6214 39.034C30.6214 34.4702 34.2859 30.7705 38.8062 30.7705Z" fill="white"/>
<path d="M8.18573 47.1323C12.706 47.1323 16.3705 43.4326 16.3705 38.8689C16.3705 36.1824 14.9634 33.8898 12.9969 32.3806C11.2803 31.3927 10.3178 27.9542 10.3178 23.6133C10.3178 19.6804 11.3283 16.3405 12.7328 15.1425V15.1354C12.7485 15.1248 12.7641 15.1141 12.7797 15.1035C12.8613 15.0371 12.9441 14.9779 13.0282 14.9261C15.055 13.422 16.3705 10.9978 16.3705 8.26349C16.3705 3.69965 12.706 0 8.18573 0C3.66541 0 0.000976562 3.69965 0.000976562 8.26349C0.000976562 11.0242 1.34195 13.4688 3.40216 14.9694C3.44171 14.9959 3.481 15.024 3.51999 15.0537C3.55928 15.0813 3.59883 15.1085 3.63864 15.1354V15.1499C5.03868 16.3542 6.04516 19.6891 6.04516 23.6145C6.04516 27.9807 4.67016 31.6825 3.02742 32.5594C1.11007 34.0718 0.000976562 36.2219 0.000976562 38.8689C0.000976562 43.4326 3.66541 47.1323 8.18573 47.1323Z" fill="white"/>
<path d="M0.000976562 38.9999C0.000976563 34.4549 3.69016 30.7705 8.24098 30.7705C10.9198 30.7705 13.3 32.0471 14.805 34.0244C15.7901 35.7503 19.1247 36.8562 23.4533 36.8562C27.3751 36.8562 30.7056 35.8401 31.9001 34.428H31.9073C31.9178 34.4123 31.9285 34.3966 31.9391 34.3809C32.0053 34.2988 32.0643 34.2156 32.1159 34.1311C33.6158 32.0932 36.0331 30.7705 38.7597 30.7705C43.3106 30.7705 46.9998 34.4549 46.9998 38.9999C46.9998 43.5448 43.3106 47.2292 38.7597 47.2292C36.0068 47.2292 33.5692 45.8809 32.0728 43.8095C32.0464 43.7697 32.0183 43.7302 31.9887 43.691C31.9612 43.6515 31.9341 43.6118 31.9073 43.5717H31.8928C30.6919 42.1641 27.3665 41.1521 23.4521 41.1521C19.0983 41.1521 15.6125 42.4105 14.7381 44.0621C13.23 45.9899 10.8805 47.2292 8.24098 47.2292C3.69016 47.2292 0.000976562 43.5448 0.000976562 38.9999Z" fill="white"/>
<ellipse cx="7.89244" cy="70.0447" rx="7.89244" ry="7.95507" fill="white"/>
<ellipse cx="38.869" cy="7.95507" rx="7.89244" ry="7.95507" fill="white"/>
</svg>
