<svg width="94" height="118" viewBox="0 0 94 118" fill="none" xmlns="http://www.w3.org/2000/svg">
<path d="M0 115.947C0 115.676 0.109149 115.356 0.327447 114.988C0.545746 114.619 0.692533 114.394 0.767808 114.311C0.918358 114.131 1.06891 114.04 1.21946 114.04C1.37754 114.04 1.54314 114.089 1.71628 114.187C1.88941 114.285 2.119 114.409 2.40505 114.559C2.69862 114.702 3.01101 114.838 3.34222 114.965C4.07992 115.244 4.72352 115.383 5.27303 115.383C5.83007 115.383 6.28172 115.334 6.62799 115.236C6.97425 115.138 7.27159 114.992 7.52 114.796C8.03187 114.383 8.28781 113.803 8.28781 113.059C8.28781 112.119 7.57646 111.318 6.15375 110.656C5.74727 110.468 5.28809 110.28 4.77622 110.092C4.27187 109.896 3.73742 109.637 3.17285 109.314C2.61582 108.99 2.11524 108.61 1.67111 108.174C0.685005 107.197 0.191952 106.046 0.191952 104.722C0.191952 103.316 0.767808 102.188 1.91952 101.338C2.99596 100.541 4.26434 100.142 5.72468 100.142C7.35063 100.142 8.68677 100.496 9.73309 101.203C10.3052 101.579 10.5912 101.928 10.5912 102.252C10.5912 102.425 10.4896 102.703 10.2864 103.086C10.0831 103.47 9.91752 103.73 9.78955 103.865C9.66911 104 9.5562 104.068 9.45081 104.068C9.26262 104.068 9.01421 103.966 8.70559 103.763C8.40448 103.56 7.97165 103.338 7.40709 103.098C6.84252 102.857 6.30807 102.737 5.80372 102.737C5.29938 102.737 4.89289 102.778 4.58426 102.861C4.28316 102.944 4.0197 103.068 3.79387 103.233C3.32717 103.587 3.09381 104.102 3.09381 104.779C3.09381 105.756 3.76376 106.531 5.10366 107.103L6.19892 107.554C7.66679 108.118 8.78086 108.742 9.54114 109.426C10.5875 110.374 11.1106 111.536 11.1106 112.912C11.1106 114.446 10.531 115.695 9.37177 116.658C8.30286 117.553 7.04953 118 5.61177 118C3.76753 118 2.19804 117.62 0.903303 116.861C0.301101 116.515 0 116.21 0 115.947Z" fill="#7637AB"/>
<path d="M24.5586 117.12C24.5586 117.519 24.3628 117.718 23.9714 117.718H22.8762C22.5826 117.718 22.4057 117.662 22.3455 117.549C22.2852 117.428 22.2514 117.323 22.2438 117.233C22.2363 117.135 22.2213 117.019 22.1987 116.883C22.1535 116.515 22.0895 116.116 22.0067 115.687C21.4196 116.763 20.4975 117.474 19.2404 117.82C18.7962 117.94 18.3069 118 17.7725 118C17.238 118 16.7036 117.91 16.1691 117.729C15.6347 117.556 15.1604 117.297 14.7464 116.951C13.813 116.169 13.3463 115.142 13.3463 113.871C13.3463 112.48 13.8582 111.416 14.8819 110.679C15.725 110.084 16.809 109.787 18.1338 109.787C19.4587 109.787 20.5803 110.175 21.4986 110.949C21.5212 110.694 21.5325 110.374 21.5325 109.99C21.5325 109.607 21.4572 109.223 21.3067 108.84C21.1561 108.456 20.9416 108.137 20.6631 107.881C20.091 107.377 19.2931 107.125 18.2693 107.125C17.351 107.125 16.4175 107.377 15.4691 107.881C15.2884 107.979 15.1303 108.028 14.9948 108.028C14.7916 108.028 14.5959 107.828 14.4077 107.43C14.2044 107.024 14.1028 106.73 14.1028 106.55C14.1028 106.219 14.3512 105.899 14.848 105.591C15.7965 105.004 17.0649 104.711 18.6532 104.711C20.0985 104.711 21.2954 105.106 22.2438 105.895C23.3654 106.843 23.9262 108.182 23.9262 109.912C23.9262 110.679 23.802 111.645 23.5536 112.811C24.1935 114.631 24.5284 116.067 24.5586 117.12ZM16.9934 112.337C16.6848 112.563 16.4627 112.788 16.3272 113.014C16.1992 113.239 16.1353 113.506 16.1353 113.815C16.1353 114.116 16.1879 114.386 16.2933 114.627C16.4062 114.86 16.5606 115.056 16.7563 115.214C17.1703 115.537 17.6332 115.699 18.1451 115.699C18.6645 115.699 19.0898 115.639 19.421 115.518C19.7522 115.398 20.0383 115.244 20.2792 115.056C20.7986 114.65 21.0583 114.221 21.0583 113.77C21.0131 113.206 20.7007 112.762 20.1211 112.438C19.6017 112.138 18.9882 111.987 18.2806 111.987C17.7311 111.987 17.302 112.104 16.9934 112.337Z" fill="#7637AB"/>
<path d="M34.7207 106.708C34.7207 107.129 34.4836 107.339 34.0094 107.339H30.8252V114.424C30.8252 115.191 31.2054 115.575 31.9656 115.575C32.4474 115.575 33.076 115.334 33.8513 114.853C34.0018 114.755 34.1637 114.706 34.3368 114.706C34.5175 114.706 34.6605 114.83 34.7659 115.078L35.0256 115.665C35.1234 115.89 35.1724 116.082 35.1724 116.24C35.1724 116.398 35.0519 116.582 34.8111 116.793C34.5777 116.996 34.2766 117.18 33.9077 117.346C33.0722 117.722 32.3157 117.91 31.6382 117.91C30.9607 117.91 30.4225 117.842 30.0235 117.707C29.6321 117.564 29.2971 117.353 29.0186 117.075C28.4164 116.488 28.1153 115.642 28.1153 114.537V107.339H27.1668C26.6926 107.339 26.4555 107.125 26.4555 106.696V106.053C26.4555 105.88 26.5007 105.745 26.591 105.647C26.6813 105.55 26.8582 105.474 27.1217 105.422L28.2508 105.095L28.6799 102.443C28.7627 101.947 28.9659 101.699 29.2896 101.699H30.2268C30.3999 101.699 30.5429 101.77 30.6559 101.913C30.7688 102.049 30.8252 102.225 30.8252 102.443V104.993H34.0094C34.4836 104.993 34.7207 105.2 34.7207 105.613V106.708Z" fill="#7637AB"/>
<path d="M38.8195 102.816C38.3076 102.816 37.871 102.639 37.5097 102.286C37.1483 101.94 36.9677 101.503 36.9677 100.977C36.9677 100.466 37.1483 100.029 37.5097 99.6683C37.8559 99.3224 38.2925 99.1494 38.8195 99.1494C39.6249 99.1494 40.1895 99.5179 40.5132 100.255C40.611 100.473 40.6599 100.714 40.6599 100.977C40.6599 101.503 40.4793 101.94 40.118 102.286C39.7566 102.639 39.3238 102.816 38.8195 102.816ZM40.1405 114.616C40.1405 115.15 40.3174 115.417 40.6712 115.417C40.7917 115.417 40.9272 115.383 41.0777 115.315C41.3713 115.187 41.5708 115.123 41.6762 115.123C41.8342 115.123 41.9622 115.232 42.0601 115.451L42.4101 116.24C42.4703 116.368 42.5004 116.488 42.5004 116.601C42.5004 116.925 42.2219 117.225 41.6649 117.504C41.1379 117.774 40.6148 117.91 40.0954 117.91C39.5835 117.91 39.1733 117.853 38.8646 117.741C38.556 117.628 38.2925 117.44 38.0742 117.176C37.6376 116.635 37.4193 115.755 37.4193 114.537V105.738C37.4193 105.527 37.4796 105.35 37.6 105.207C37.7204 105.064 37.8635 104.993 38.0291 104.993H39.5421C39.7152 104.993 39.8583 105.064 39.9712 105.207C40.0841 105.35 40.1405 105.527 40.1405 105.738V114.616Z" fill="#7637AB"/>
<path d="M54.1756 102.883H50.0995C49.9037 102.883 49.7344 102.823 49.5914 102.703C49.4559 102.575 49.3881 102.421 49.3881 102.24V101.056C49.3881 100.883 49.4559 100.736 49.5914 100.616C49.7344 100.488 49.9037 100.424 50.0995 100.424H61.2553C61.451 100.424 61.5978 100.488 61.6956 100.616C61.801 100.736 61.8537 100.887 61.8537 101.067V102.252C61.8537 102.425 61.801 102.575 61.6956 102.703C61.5902 102.823 61.4397 102.883 61.244 102.883H57.021V116.996C57.021 117.192 56.957 117.361 56.8291 117.504C56.7086 117.647 56.5618 117.718 56.3887 117.718H54.7966C54.6235 117.718 54.4767 117.647 54.3563 117.504C54.2358 117.361 54.1756 117.192 54.1756 116.996V102.883Z" fill="#7637AB"/>
<path d="M65.8056 102.816C65.2938 102.816 64.8572 102.639 64.4959 102.286C64.1345 101.94 63.9539 101.503 63.9539 100.977C63.9539 100.466 64.1345 100.029 64.4959 99.6683C64.8421 99.3224 65.2787 99.1494 65.8056 99.1494C66.6111 99.1494 67.1757 99.5179 67.4993 100.255C67.5972 100.473 67.6461 100.714 67.6461 100.977C67.6461 101.503 67.4655 101.94 67.1041 102.286C66.7428 102.639 66.31 102.816 65.8056 102.816ZM67.1267 114.616C67.1267 115.15 67.3036 115.417 67.6574 115.417C67.7779 115.417 67.9134 115.383 68.0639 115.315C68.3575 115.187 68.557 115.123 68.6623 115.123C68.8204 115.123 68.9484 115.232 69.0462 115.451L69.3963 116.24C69.4565 116.368 69.4866 116.488 69.4866 116.601C69.4866 116.925 69.2081 117.225 68.6511 117.504C68.1241 117.774 67.601 117.91 67.0816 117.91C66.5697 117.91 66.1594 117.853 65.8508 117.741C65.5422 117.628 65.2787 117.44 65.0604 117.176C64.6238 116.635 64.4055 115.755 64.4055 114.537V105.738C64.4055 105.527 64.4657 105.35 64.5862 105.207C64.7066 105.064 64.8496 104.993 65.0153 104.993H66.5283C66.7014 104.993 66.8444 105.064 66.9574 105.207C67.0703 105.35 67.1267 105.527 67.1267 105.738V114.616Z" fill="#7637AB"/>
<path d="M82.3926 117.12C82.3926 117.519 82.1968 117.718 81.8054 117.718H80.7102C80.4166 117.718 80.2397 117.662 80.1795 117.549C80.1192 117.428 80.0854 117.323 80.0778 117.233C80.0703 117.135 80.0553 117.019 80.0327 116.883C79.9875 116.515 79.9235 116.116 79.8407 115.687C79.2536 116.763 78.3315 117.474 77.0744 117.82C76.6302 117.94 76.1409 118 75.6065 118C75.072 118 74.5376 117.91 74.0031 117.729C73.4687 117.556 72.9944 117.297 72.5804 116.951C71.647 116.169 71.1803 115.142 71.1803 113.871C71.1803 112.48 71.6922 111.416 72.7159 110.679C73.559 110.084 74.643 109.787 75.9678 109.787C77.2927 109.787 78.4143 110.175 79.3326 110.949C79.3552 110.694 79.3665 110.374 79.3665 109.99C79.3665 109.607 79.2912 109.223 79.1407 108.84C78.9901 108.456 78.7756 108.137 78.4971 107.881C77.925 107.377 77.127 107.125 76.1033 107.125C75.1849 107.125 74.2515 107.377 73.3031 107.881C73.1224 107.979 72.9643 108.028 72.8288 108.028C72.6256 108.028 72.4299 107.828 72.2417 107.43C72.0384 107.024 71.9368 106.73 71.9368 106.55C71.9368 106.219 72.1852 105.899 72.682 105.591C73.6305 105.004 74.8989 104.711 76.4872 104.711C77.9325 104.711 79.1294 105.106 80.0778 105.895C81.1994 106.843 81.7602 108.182 81.7602 109.912C81.7602 110.679 81.636 111.645 81.3876 112.811C82.0275 114.631 82.3624 116.067 82.3926 117.12ZM74.8274 112.337C74.5188 112.563 74.2967 112.788 74.1612 113.014C74.0332 113.239 73.9692 113.506 73.9692 113.815C73.9692 114.116 74.0219 114.386 74.1273 114.627C74.2402 114.86 74.3946 115.056 74.5903 115.214C75.0043 115.537 75.4672 115.699 75.9791 115.699C76.4985 115.699 76.9238 115.639 77.255 115.518C77.5862 115.398 77.8723 115.244 78.1132 115.056C78.6326 114.65 78.8923 114.221 78.8923 113.77C78.8471 113.206 78.5347 112.762 77.9551 112.438C77.4357 112.138 76.8222 111.987 76.1146 111.987C75.5651 111.987 75.136 112.104 74.8274 112.337Z" fill="#7637AB"/>
<path d="M89.1899 115.687C90.6352 115.687 91.3578 115.202 91.3578 114.232C91.3578 113.698 90.9476 113.247 90.1271 112.878C89.7808 112.72 89.4007 112.574 88.9867 112.438C88.5802 112.303 88.1888 112.141 87.8124 111.953C87.436 111.765 87.0822 111.562 86.751 111.344C86.4273 111.119 86.145 110.863 85.9041 110.577C85.4073 109.975 85.1589 109.212 85.1589 108.287C85.1589 107.159 85.6294 106.264 86.5703 105.602C87.4059 105.008 88.4334 104.711 89.6529 104.711C90.9626 104.711 92.0579 104.967 92.9386 105.478C93.2397 105.659 93.3903 105.865 93.3903 106.099C93.3903 106.429 93.2999 106.794 93.1193 107.193C92.9461 107.584 92.7391 107.779 92.4983 107.779C92.2649 107.779 92.0504 107.731 91.8547 107.633C91.6665 107.535 91.4933 107.452 91.3353 107.385C91.1847 107.309 91.0229 107.249 90.8497 107.204C90.4734 107.091 90.1233 107.035 89.7996 107.035C89.4835 107.035 89.2275 107.057 89.0318 107.103C88.8361 107.148 88.6592 107.219 88.5011 107.317C88.1172 107.55 87.9253 107.836 87.9253 108.174C87.9253 108.513 88.0006 108.772 88.1511 108.953C88.3092 109.133 88.5237 109.299 88.7947 109.449C89.0657 109.599 89.3894 109.75 89.7658 109.9L90.9852 110.408C91.9713 110.837 92.6375 111.224 92.9838 111.57C93.6613 112.262 94 113.063 94 113.973C94 115.116 93.6086 116.056 92.8257 116.793C91.96 117.598 90.7293 118 89.1335 118C87.515 118 86.2993 117.688 85.4864 117.064C85.0874 116.763 84.8879 116.492 84.8879 116.251C84.8879 116.011 84.9293 115.796 85.0121 115.608C85.1025 115.413 85.2154 115.187 85.3509 114.932C85.4939 114.668 85.6821 114.537 85.9154 114.537C86.1563 114.537 86.4085 114.646 86.672 114.864C86.9429 115.074 87.3118 115.266 87.7785 115.439C88.2452 115.605 88.7157 115.687 89.1899 115.687Z" fill="#7637AB"/>
<path d="M62.9899 31.5382C67.65 31.5382 71.4277 35.3301 71.4277 40.0077C71.4277 42.7612 69.9771 45.111 67.9498 46.6579C66.1801 47.6704 65.1879 51.1947 65.1879 55.6439C65.1879 59.6749 66.2297 63.0981 67.6776 64.326V64.3333C67.6937 64.3441 67.7098 64.355 67.7259 64.366C67.81 64.434 67.8954 64.4947 67.982 64.5477C70.0716 66.0894 71.4277 68.5741 71.4277 71.3766C71.4277 76.0543 67.65 79.8462 62.9899 79.8462C58.3299 79.8462 54.5522 76.0543 54.5522 71.3766C54.5522 68.547 55.9346 66.0415 58.0585 64.5034C58.0993 64.4763 58.1398 64.4474 58.18 64.417C58.2205 64.3887 58.2613 64.3609 58.3023 64.3333V64.3184C59.7456 63.084 60.7832 59.666 60.7832 55.6426C60.7832 51.1675 59.3657 47.3733 57.6722 46.4745C55.6956 44.9245 54.5522 42.7207 54.5522 40.0077C54.5522 35.3301 58.3299 31.5382 62.9899 31.5382Z" fill="url(#paint0_linear)"/>
<path d="M31.4231 48.3081C36.0831 48.3081 39.8608 44.5161 39.8608 39.8385C39.8608 37.085 38.4102 34.7353 36.3829 33.1883C34.6133 32.1758 33.621 28.6516 33.621 24.2024C33.621 20.1714 34.6628 16.7481 36.1107 15.5203V15.5129C36.1268 15.5021 36.143 15.4912 36.1591 15.4803C36.2432 15.4122 36.3286 15.3515 36.4152 15.2985C38.5047 13.7569 39.8608 11.2722 39.8608 8.46964C39.8608 3.79195 36.0831 0 31.4231 0C26.7631 0 22.9854 3.79195 22.9854 8.46964C22.9854 11.2992 24.3678 13.8048 26.4917 15.3428C26.5324 15.37 26.5729 15.3988 26.6131 15.4292C26.6536 15.4575 26.6944 15.4854 26.7354 15.5129V15.5278C28.1788 16.7622 29.2164 20.1802 29.2164 24.2036C29.2164 28.6787 27.7988 32.4729 26.1053 33.3717C24.1287 34.9218 22.9854 37.1255 22.9854 39.8385C22.9854 44.5161 26.7631 48.3081 31.4231 48.3081Z" fill="url(#paint1_linear)"/>
<path d="M22.9854 39.9728C22.9854 35.3145 26.7886 31.5382 31.48 31.5382C34.2417 31.5382 36.6954 32.8466 38.2469 34.8732C39.2625 36.6422 42.7002 37.7757 47.1626 37.7757C51.2056 37.7757 54.639 36.7342 55.8705 35.2869H55.8778C55.8887 35.2708 55.8997 35.2546 55.9106 35.2386C55.9789 35.1545 56.0397 35.0691 56.0929 34.9825C57.6391 32.8938 60.1312 31.5382 62.942 31.5382C67.6336 31.5382 71.4368 35.3145 71.4368 39.9728C71.4368 44.6311 67.6336 48.4074 62.942 48.4074C60.1041 48.4074 57.5911 47.0255 56.0484 44.9024C56.0212 44.8617 55.9923 44.8212 55.9618 44.781C55.9334 44.7405 55.9055 44.6997 55.8778 44.6587H55.8629C54.6249 43.2159 51.1967 42.1787 47.1613 42.1787C42.673 42.1787 39.0794 43.4685 38.178 45.1614C36.6233 47.1372 34.2011 48.4074 31.48 48.4074C26.7886 48.4074 22.9854 44.6311 22.9854 39.9728Z" fill="url(#paint2_linear)"/>
<ellipse cx="31.1208" cy="71.7922" rx="8.13639" ry="8.15352" fill="url(#paint3_linear)"/>
<ellipse cx="63.0544" cy="8.15352" rx="8.13639" ry="8.15352" fill="url(#paint4_linear)"/>
<defs>
<linearGradient id="paint0_linear" x1="66.298" y1="74.9949" x2="28.6873" y2="9.52758" gradientUnits="userSpaceOnUse">
<stop stop-color="#FF4AA7"/>
<stop offset="0.370166" stop-color="#FA0884"/>
<stop offset="1" stop-color="#9031AD"/>
</linearGradient>
<linearGradient id="paint1_linear" x1="66.298" y1="74.9949" x2="28.6873" y2="9.52758" gradientUnits="userSpaceOnUse">
<stop stop-color="#FF4AA7"/>
<stop offset="0.370166" stop-color="#FA0884"/>
<stop offset="1" stop-color="#9031AD"/>
</linearGradient>
<linearGradient id="paint2_linear" x1="66.298" y1="74.9949" x2="28.6873" y2="9.52758" gradientUnits="userSpaceOnUse">
<stop stop-color="#FF4AA7"/>
<stop offset="0.370166" stop-color="#FA0884"/>
<stop offset="1" stop-color="#9031AD"/>
</linearGradient>
<linearGradient id="paint3_linear" x1="31.1208" y1="79.9457" x2="31.1252" y2="70.0423" gradientUnits="userSpaceOnUse">
<stop stop-color="#9131AE"/>
<stop offset="1" stop-color="#A828A5"/>
</linearGradient>
<linearGradient id="paint4_linear" x1="63.0544" y1="16.307" x2="62.6595" y2="-0.0675552" gradientUnits="userSpaceOnUse">
<stop stop-color="#FE4AA7"/>
<stop offset="0.94883" stop-color="#FA0884"/>
</linearGradient>
</defs>
</svg>
